# xmcd CD database file
#
# Track frame offsets:
#	150
#	15902
#	27497
#	40617
#	51930
#	67225
#	81117
#	94032
#	105542
#	118682
#
# Disc length: 1715 seconds
#
# Revision: 2
# Processed by: cddbd v1.5.2PL0 Copyright (c) Steve Scherf et al.
# Submitted via: jetAudio 7
#
DISCID=7906b10a
DTITLE=Chet Atkins - Lassoes 'n Spurs
DYEAR=1900
DGENRE=Country
TTITLE0=Sweet Caroline
TTITLE1=An Old Fashioned Love Song
TTITLE2=After Midnight
TTITLE3=El Paso
TTITLE4=Vincent
TTITLE5=Song Sung Blue
TTITLE6=You'll Never Walk Alone
TTITLE7=Amazing Grace
TTITLE8=Mrs. Robinson
TTITLE9=The Bells Of St. Mary's
EXTD=
EXTT0=
EXTT1=
EXTT2=
EXTT3=
EXTT4=
EXTT5=
EXTT6=
EXTT7=
EXTT8=
EXTT9=
PLAYORDER=
